<?xml version="1.0" encoding="UTF-8"?>
<svg xmlns="http://www.w3.org/2000/svg" viewBox="0 0 200 200" role="img">
  <defs>
    <radialGradient id="bg" cx="50%" cy="50%" r="55%">
      <stop offset="0%" stop-color="hsl(82,45%,12%)"/>
      <stop offset="100%" stop-color="hsl(82,55%,4%)"/>
    </radialGradient>
    <filter id="glow"><feGaussianBlur stdDeviation="2"/></filter>
  </defs>
  <rect width="200" height="200" fill="url(#bg)"/>
  <g filter="url(#glow)" opacity="0.55"><circle cx="100" cy="100" r="30" fill="none" stroke="#ffd166" stroke-width="0.6" opacity="0.55"/><circle cx="100" cy="100" r="48" fill="none" stroke="#ffd166" stroke-width="0.6" opacity="0.45"/><circle cx="100" cy="100" r="66" fill="none" stroke="#ffd166" stroke-width="0.6" opacity="0.35"/></g>
  <polygon points="70.9,146.6 45.0,98.1 74.2,51.4 129.1,53.4 155.0,101.9 125.8,148.6" fill="none" stroke="#ff6b6b" stroke-width="2.2" opacity="0.85"/>
  <polygon points="70.9,146.6 45.0,98.1 74.2,51.4 129.1,53.4 155.0,101.9 125.8,148.6" fill="#c94646" opacity="0.18"/>
  <circle cx="100" cy="100" r="6" fill="#ffd166"/><circle cx="100" cy="100" r="14" fill="none" stroke="#ffd166" stroke-width="1.2" opacity="0.8"/>
  <g><circle cx="126.3" cy="153.9" r="2" fill="#ffd166" opacity="0.7"/><circle cx="71.7" cy="160.7" r="2" fill="#ffd166" opacity="0.7"/><circle cx="28.2" cy="117.9" r="2" fill="#ffd166" opacity="0.7"/><circle cx="35.3" cy="51.3" r="2" fill="#ffd166" opacity="0.7"/><circle cx="96.9" cy="12.1" r="2" fill="#ffd166" opacity="0.7"/><circle cx="149.1" cy="57.4" r="2" fill="#ffd166" opacity="0.7"/><circle cx="170.9" cy="112.5" r="2" fill="#ffd166" opacity="0.7"/></g>
</svg>
